<?xml version="1.0" encoding="utf-8"?>
<!-- Generator: Adobe Illustrator 23.0.5, SVG Export Plug-In . SVG Version: 6.00 Build 0)  -->
<svg version="1.1" id="Layer_1" xmlns="http://www.w3.org/2000/svg" xmlns:xlink="http://www.w3.org/1999/xlink" x="0px" y="0px"
	 viewBox="0 0 918.6 213" style="enable-background:new 0 0 918.6 213;" xml:space="preserve">
<style type="text/css">
	.st0{fill:#20AEE3;}
</style>
<path class="st0" d="M99.1,114c0,6.5-1.2,12.6-3.7,18.3c-2.5,5.8-5.8,10.8-10,15c-4.3,4.3-9.2,7.7-15,10.1
	c-5.8,2.5-11.8,3.7-18.2,3.7s-12.5-1.2-18.2-3.7c-5.8-2.5-10.7-5.8-15-10.1s-7.6-9.3-10-15c-2.5-5.8-3.7-11.9-3.7-18.3
	S6.5,101.4,9,95.7s5.8-10.8,10-14.9c4.3-4.2,9.2-7.6,15-10c5.8-2.5,11.8-3.7,18.2-3.7c4.4,0,8.6,0.6,12.7,1.9s7.8,3.7,11.1,7.4
	L75.7,25H99L99.1,114L99.1,114L99.1,114z M76.1,113.7c0-3.2-0.6-6.3-1.9-9.3c-1.3-2.9-3-5.5-5.1-7.7c-2.2-2.2-4.7-3.9-7.6-5.2
	c-2.9-1.3-6.1-1.9-9.4-1.9s-6.5,0.6-9.5,1.9c-2.9,1.3-5.5,3-7.6,5.2c-2.2,2.2-3.9,4.8-5.1,7.7c-1.3,2.9-1.9,6-1.9,9.3
	c0,3.4,0.6,6.5,1.9,9.4s3,5.5,5.1,7.7s4.7,3.9,7.6,5.2c2.9,1.3,6.1,1.9,9.5,1.9s6.5-0.6,9.4-1.9c2.9-1.3,5.5-3,7.6-5.2
	s3.9-4.8,5.1-7.7C75.5,120.2,76.1,117.1,76.1,113.7z M142,63c-3.6,0-6.6-1.3-9.1-3.8s-3.9-5.6-3.9-9.3v-6.6c0-0.6,0.1-1,0.2-1.3H155
	v7.9c0,3.7-1.3,6.8-3.8,9.3C148.7,61.7,145.6,63,142,63z M154,71h-24v89h24V71z M272,113.9l-0.2,39.4c0,6.5-1.2,12.6-3.7,18.4
	c-2.5,5.8-5.8,10.8-10.1,15.1c-4.3,4.3-9.3,7.7-15,10.1c-5.7,2.5-11.9,3.7-18.4,3.7s-12.6-1.2-18.2-3.7c-5.7-2.4-10.7-5.8-15.1-10.1
	l17.3-15.5c2.1,1.9,4.5,3.4,7.3,4.5s5.7,1.6,8.7,1.6c2.5,0,5.1-0.3,7.7-0.8c2.6-0.5,5-1.4,7.3-2.7c2.2-1.3,4.2-2.9,5.8-4.9
	s2.7-4.4,3.2-7.3l0.3-11.1c-3.4,4.3-7.1,7.1-11.2,8.4c-4.1,1.3-8.4,2-12.8,2c-6.5,0-12.6-1.2-18.4-3.7c-5.8-2.5-10.8-5.8-15.1-10.1
	s-7.7-9.3-10.1-15.1c-2.5-5.8-3.7-11.9-3.7-18.4s1.2-12.6,3.7-18.4s5.8-10.8,10.1-15s9.3-7.6,15.1-10c5.8-2.5,11.9-3.7,18.4-3.7
	s12.6,1.2,18.4,3.7c5.8,2.5,10.8,5.8,15,10s7.6,9.2,10,15c2.5,5.8,3.7,11.9,3.7,18.4V113.9z M248.4,113.7c0-3.2-0.6-6.3-1.9-9.3
	c-1.3-2.9-3-5.5-5.2-7.7s-4.8-3.9-7.7-5.2c-2.9-1.3-6-1.9-9.3-1.9c-3.4,0-6.5,0.6-9.4,1.9s-5.5,3-7.7,5.2s-3.9,4.8-5.2,7.7
	c-1.3,2.9-1.9,6-1.9,9.3c0,3.4,0.6,6.5,1.9,9.4c1.3,2.9,3,5.5,5.2,7.7s4.8,3.9,7.7,5.2s6.1,1.9,9.4,1.9c3.2,0,6.3-0.6,9.3-1.9
	c2.9-1.3,5.5-3,7.7-5.2s3.9-4.8,5.2-7.7C247.7,120.2,248.4,117.1,248.4,113.7z M314,63c-3.6,0-6.6-1.3-9.1-3.8s-3.9-5.6-3.9-9.3
	v-6.6c0-0.6,0.1-1,0.2-1.3H327v7.9c0,3.7-1.3,6.8-3.8,9.3C320.7,61.7,317.5,63,314,63z M326,71h-24v89h24V71z M347.9,88h8.2
	c0.5-7.6,2-14,4.6-19.4c2.5-5.4,5.8-9.7,9.9-13s8.8-5.7,14.1-7.2s11.1-2.3,17.3-2.3v23.6c0,0-4.4,0.3-7.2,1
	c-2.8,0.6-5.3,1.7-7.7,3.2c-2.4,1.5-4.3,3.4-5.9,5.8s-2.4,5.4-2.5,9.3H400v21h-21v50h-23l0.2-50H348L347.9,88L347.9,88z M449,160
	h-23V42h23V160z M564.9,113.9c0,6.5-1.2,12.6-3.7,18.4s-5.8,10.8-10,15.1s-9.2,7.7-15,10.1c-5.8,2.5-11.9,3.7-18.4,3.7
	s-12.6-1.2-18.4-3.7s-10.8-5.8-15.1-10.1c-4.3-4.3-7.7-9.3-10.1-15.1c-2.5-5.8-3.7-11.9-3.7-18.4s1.2-12.6,3.7-18.4
	s5.8-10.8,10.1-15c4.3-4.2,9.3-7.6,15.1-10c5.8-2.5,11.9-3.7,18.4-3.7s12.6,1.2,18.4,3.7c5.8,2.5,10.8,5.8,15,10s7.6,9.2,10,15
	C563.6,101.3,564.9,107.4,564.9,113.9z M541.8,113.9c0-3.2-0.6-6.3-1.9-9.3c-1.3-2.9-3-5.5-5.2-7.7s-4.8-3.9-7.7-5.2
	c-2.9-1.3-6-1.9-9.3-1.9c-3.4,0-6.5,0.6-9.4,1.9s-5.5,3-7.7,5.2s-3.9,4.8-5.2,7.7c-1.3,2.9-1.9,6-1.9,9.3c0,3.4,0.6,6.5,1.9,9.4
	s3,5.5,5.2,7.7s4.8,3.9,7.7,5.2c2.9,1.3,6.1,1.9,9.4,1.9c3.2,0,6.3-0.6,9.3-1.9c2.9-1.3,5.5-3,7.7-5.2s3.9-4.8,5.2-7.7
	C541.2,120.4,541.8,117.3,541.8,113.9z M639.6,71l18.4,45l15.2-46h25.9l-34,90h-11.9L636,111.9L617.1,160h-9.9l-34.1-90h24.2
	l15.2,46l18.4-45H639.6z"/>
<g>
	<path class="st0" d="M741.2,158.2c0,0,8,11.7,29,14.7s26.3-1.3,29.7-3c3.3-1.7,12-7.7,16.7-19s20-54.7,23-64.3s5-25-11-29.7
		s-23.7,5-25,9.3s-19,61-23.7,71.3C775.2,147.9,767.8,161.6,741.2,158.2z"/>
	<path class="st0" d="M764.8,73.3L764.8,73.3c-11-4.2-23.4,1.4-27.6,12.4l-12.1,31.8c-4.2,11,1.4,23.4,12.4,27.6l0,0
		c11,4.2,23.4-1.4,27.6-12.4l12.1-31.8C781.3,89.9,775.8,77.5,764.8,73.3z"/>
	<path class="st0" d="M819,169.9c14,4.1,26.2,3.5,36,0s19-7,27-31.8s21.2-66.2,24.2-76.2s8.8-30-10.8-33.8s-24.5,6-27,13.2
		S839.5,163.9,819,169.9z"/>
</g>
</svg>
