<?xml version="1.0" standalone="no"?>
<!DOCTYPE svg PUBLIC "-//W3C//DTD SVG 20010904//EN"
 "http://www.w3.org/TR/2001/REC-SVG-20010904/DTD/svg10.dtd">
<svg version="1.0" xmlns="http://www.w3.org/2000/svg"
 width="992.000000pt" height="992.000000pt" viewBox="0 0 992.000000 992.000000"
 preserveAspectRatio="xMidYMid meet">
<metadata>
Created by potrace 1.14, written by Peter Selinger 2001-2017
</metadata>
<g transform="translate(0.000000,992.000000) scale(0.100000,-0.100000)"
fill="#000000" stroke="none">
<path d="M8159 8503 c-46 -6 -108 -20 -139 -29 -30 -10 -60 -17 -67 -17 -7 0
-13 -4 -13 -9 0 -4 -3 -7 -7 -6 -12 3 -105 -41 -125 -59 -10 -9 -18 -13 -18
-9 0 4 -6 1 -14 -6 -8 -7 -41 -35 -73 -63 -77 -65 -143 -152 -199 -262 -40
-77 -80 -178 -89 -223 -2 -8 -4 -15 -5 -15 -1 0 -3 -7 -5 -15 -2 -8 -8 -35
-14 -60 -11 -44 -15 -59 -27 -110 -9 -43 -12 -55 -14 -55 -1 0 -3 -7 -5 -16
-1 -8 -13 -53 -25 -100 -12 -46 -24 -93 -26 -104 -2 -11 -13 -56 -25 -100 -11
-44 -22 -87 -24 -95 -2 -8 -4 -16 -5 -17 -3 -3 -2 -2 -15 -58 -10 -47 -12 -54
-14 -57 -2 -2 -4 -13 -6 -24 -5 -25 -50 -200 -100 -385 -19 -70 -36 -137 -39
-150 -3 -13 -15 -58 -26 -99 -11 -41 -23 -82 -25 -90 -45 -165 -77 -279 -81
-295 -3 -11 -7 -27 -9 -35 -1 -8 -5 -22 -8 -30 -3 -8 -13 -42 -22 -75 -28
-104 -32 -118 -59 -210 -15 -49 -29 -99 -31 -110 -2 -11 -4 -21 -6 -22 -1 -2
-2 -6 -3 -10 -2 -5 -9 -28 -16 -53 -7 -25 -14 -47 -15 -50 -1 -3 -7 -25 -14
-50 -6 -25 -15 -52 -18 -60 -3 -8 -7 -22 -9 -30 -2 -8 -22 -76 -45 -150 -23
-74 -41 -141 -42 -147 0 -7 -5 -13 -10 -13 -6 0 -8 -3 -5 -6 5 -5 -9 -60 -29
-114 -3 -8 -8 -21 -10 -27 -1 -7 -5 -19 -6 -25 -2 -7 -6 -20 -9 -28 -3 -8 -31
-96 -62 -195 -32 -99 -63 -193 -69 -210 -6 -16 -12 -32 -12 -35 -1 -6 -33
-107 -42 -130 -3 -8 -29 -82 -58 -165 -87 -247 -110 -310 -115 -315 -3 -3 -6
-12 -8 -20 -3 -17 -49 -137 -63 -162 -5 -10 -9 -23 -9 -30 0 -7 -6 -24 -13
-38 -7 -14 -21 -47 -31 -75 -10 -27 -31 -78 -47 -113 -16 -35 -29 -66 -29 -69
0 -23 -282 -619 -300 -633 -3 -3 -14 -21 -23 -40 -17 -33 -104 -175 -137 -220
-62 -88 -117 -155 -170 -209 -62 -62 -155 -131 -176 -131 -6 0 -17 -6 -23 -13
-9 -11 0 -16 47 -27 74 -18 72 -17 75 -20 1 -1 10 -3 21 -5 10 -2 39 -9 65
-15 25 -6 57 -13 71 -15 91 -17 143 -26 176 -30 22 -2 62 -7 89 -11 175 -22
494 -17 674 11 84 13 99 16 161 31 72 16 103 23 110 24 3 0 64 21 135 46 72
25 140 48 153 51 12 3 22 10 22 16 0 6 3 8 6 5 12 -13 222 90 316 153 78 53
100 71 172 142 33 31 63 57 68 57 4 0 8 3 8 8 0 4 20 32 46 62 53 65 104 137
104 150 0 4 4 10 8 12 10 4 82 125 82 138 0 4 3 10 8 12 7 3 122 241 122 253
0 3 9 25 19 48 19 43 90 241 111 312 6 22 14 47 17 55 4 8 7 18 8 23 2 4 3 8
5 10 1 1 3 9 5 17 2 8 37 116 78 240 41 124 114 347 161 495 48 149 91 278 97
287 5 10 9 24 9 32 0 8 5 27 12 43 6 15 12 33 14 38 4 16 60 192 94 295 17 52
33 102 35 110 2 8 4 15 5 15 1 0 3 7 5 15 2 8 13 41 24 73 11 32 20 62 19 65
-1 4 4 21 11 37 7 17 14 35 15 40 1 6 22 71 45 145 24 74 56 178 73 230 16 52
32 102 35 110 3 8 8 21 10 28 1 6 5 18 6 25 2 6 7 19 10 27 8 20 87 275 92
298 3 9 18 58 34 107 16 50 43 137 61 195 17 58 38 122 46 144 8 21 12 41 10
44 -3 3 -1 11 4 18 6 6 13 22 15 35 3 12 13 50 24 83 16 50 34 112 47 159 1 4
2 8 4 10 2 3 7 23 15 61 3 16 9 34 13 40 3 6 7 16 8 21 1 6 7 30 14 55 7 25
14 52 15 60 2 8 4 16 5 18 3 3 3 1 24 107 2 11 11 49 19 85 9 36 18 88 21 115
4 28 9 70 13 95 10 73 5 355 -7 355 -1 0 -3 12 -5 26 -7 54 -28 117 -66 197
-31 64 -57 99 -115 157 -41 41 -79 75 -84 75 -5 0 -18 7 -28 16 -10 8 -45 27
-78 41 -32 14 -68 29 -79 34 -29 13 -197 50 -202 45 -3 -2 -19 0 -36 5 -81 23
-342 30 -468 12z"/>
<path d="M5167 7214 c-1 -1 -27 -5 -58 -8 -31 -4 -69 -10 -85 -15 -16 -4 -35
-6 -41 -4 -7 3 -13 0 -13 -5 0 -5 -16 -13 -35 -16 -36 -7 -197 -85 -203 -98
-2 -5 -9 -8 -16 -8 -6 0 -18 -9 -26 -20 -8 -11 -18 -20 -22 -20 -14 0 -114
-104 -148 -154 -33 -49 -76 -146 -64 -146 4 0 2 -6 -4 -12 -5 -7 -22 -53 -36
-103 -15 -49 -31 -99 -36 -110 -4 -11 -20 -60 -35 -110 -14 -49 -30 -99 -34
-110 -5 -11 -26 -74 -46 -140 -21 -66 -41 -129 -46 -140 -16 -40 -83 -260 -81
-267 1 -5 -2 -8 -6 -8 -5 0 -9 -6 -9 -13 0 -7 -22 -80 -48 -162 -27 -83 -50
-152 -50 -155 -2 -12 -118 -369 -130 -400 -12 -32 -168 -508 -170 -520 0 -3
-9 -30 -20 -60 -11 -30 -20 -57 -20 -60 -2 -11 -37 -116 -45 -135 -5 -11 -25
-69 -44 -130 -19 -60 -57 -174 -84 -252 -28 -79 -47 -143 -43 -143 3 0 2 -4
-4 -8 -5 -4 -21 -41 -34 -82 -14 -41 -28 -79 -33 -85 -4 -5 -8 -15 -8 -22 0
-17 -37 -97 -68 -147 -13 -22 -25 -44 -26 -50 -1 -6 -9 -22 -17 -36 -9 -14
-42 -68 -74 -120 -78 -129 -157 -230 -251 -324 -77 -76 -229 -186 -309 -223
-22 -10 -43 -22 -46 -26 -3 -5 -9 -8 -13 -7 -4 1 -45 -12 -92 -29 -101 -37
-141 -47 -284 -72 -85 -15 -449 -18 -577 -6 -46 4 -83 5 -83 1 0 -5 44 -51 98
-104 80 -78 212 -181 317 -247 48 -30 242 -126 313 -154 138 -55 336 -114 352
-104 6 3 10 1 10 -6 0 -7 3 -10 6 -6 3 3 18 1 32 -4 14 -6 44 -12 67 -15 51
-6 83 -11 115 -18 14 -3 45 -8 70 -11 46 -6 71 -8 215 -22 108 -10 514 -10
595 0 145 18 338 69 415 111 11 5 22 11 25 11 3 0 31 13 64 28 32 15 60 27 63
27 5 0 115 71 123 80 3 3 23 18 45 35 44 32 255 243 255 255 0 4 12 20 26 36
58 66 198 292 210 339 3 14 10 25 14 25 5 0 14 17 21 38 6 20 15 42 19 47 4 6
15 33 25 60 10 28 22 55 25 60 4 6 20 44 35 85 15 41 33 89 40 105 46 113 98
253 96 261 -2 4 1 10 6 13 8 6 48 114 58 155 2 10 9 24 16 32 6 8 8 14 4 14
-4 0 -3 6 3 13 6 6 10 16 10 20 0 8 28 88 42 122 5 11 32 85 60 165 28 80 62
174 75 210 76 209 115 321 115 334 0 8 4 17 9 20 4 3 16 34 26 68 11 35 19 65
20 68 1 3 9 22 18 42 10 21 17 46 17 56 0 10 4 22 8 28 5 5 17 36 27 69 11 33
22 65 25 70 4 6 15 39 25 75 11 36 22 67 25 70 3 3 6 10 7 15 1 6 15 49 31 97
17 48 27 89 24 92 -3 3 0 6 7 6 7 0 10 4 7 8 -3 5 1 20 9 35 8 15 12 27 9 27
-3 0 1 15 32 95 4 11 8 25 9 30 4 14 85 267 92 285 3 8 8 24 10 35 2 11 7 31
13 45 10 26 36 129 44 171 2 13 5 24 6 24 1 0 3 9 5 20 2 11 6 31 9 45 3 14 8
48 11 75 4 28 8 64 10 80 5 40 5 251 0 295 -2 19 -8 52 -14 73 -5 20 -7 37 -4
37 3 0 0 7 -7 15 -7 8 -10 15 -7 15 16 0 -74 200 -99 221 -8 6 -14 16 -14 21
0 11 -122 131 -166 164 -69 51 -216 116 -313 140 -9 2 -34 8 -56 13 -59 15
-307 34 -318 25z"/>
<path d="M2268 6465 c-2 -1 -37 -5 -78 -8 -41 -4 -86 -9 -100 -12 -14 -3 -36
-8 -50 -11 -53 -10 -128 -38 -202 -75 -156 -77 -256 -163 -371 -314 -31 -42
-104 -175 -112 -205 -2 -8 -14 -38 -50 -130 -43 -111 -48 -124 -50 -130 -5
-14 -26 -67 -35 -85 -13 -29 -24 -69 -22 -77 1 -5 -2 -8 -7 -8 -4 0 -14 -20
-21 -45 -7 -25 -16 -45 -20 -45 -4 0 -7 -7 -7 -15 0 -8 -7 -31 -16 -52 -33
-78 -166 -422 -173 -447 -3 -14 -10 -26 -16 -26 -5 0 -7 -4 -4 -9 3 -5 -1 -21
-8 -37 -36 -75 -58 -132 -61 -157 -1 -11 -7 -22 -14 -27 -7 -4 -11 -9 -9 -11
3 -4 -39 -119 -62 -174 -13 -30 -37 -106 -44 -140 -3 -16 -9 -43 -12 -60 -11
-49 -13 -259 -2 -311 5 -27 11 -56 12 -64 7 -48 19 -91 27 -96 5 -3 9 -13 9
-23 0 -39 91 -208 159 -294 29 -38 162 -167 172 -167 5 0 18 -8 28 -17 34 -32
45 -38 131 -81 47 -23 92 -42 101 -42 9 0 19 -3 23 -8 4 -4 12 -8 17 -8 5 -1
10 -2 12 -4 5 -4 63 -17 141 -31 57 -10 210 -13 251 -5 11 2 42 7 69 10 27 4
57 11 68 17 10 5 18 7 18 4 0 -9 157 52 217 85 119 65 243 171 311 265 20 28
41 53 47 57 5 4 6 8 1 8 -5 0 -2 8 6 18 13 15 30 46 73 132 7 14 20 49 29 77
10 29 22 55 27 58 5 4 9 17 9 31 0 13 5 24 12 24 6 0 9 3 6 6 -4 3 11 48 32
100 21 52 36 94 32 94 -4 0 -2 4 4 8 6 4 23 41 38 82 16 41 37 98 48 125 11
28 21 55 22 60 2 6 8 21 14 35 5 14 27 68 47 120 20 52 43 109 49 125 36 84
106 272 106 283 0 6 4 12 9 12 7 0 22 48 20 66 0 4 3 10 8 13 13 9 100 249
119 329 19 76 27 288 14 348 -5 21 -11 53 -14 69 -11 63 -17 89 -27 107 -6 11
-12 28 -14 38 -5 24 -71 156 -96 191 -10 15 -19 29 -19 32 0 23 -175 196 -250
247 -66 45 -218 120 -242 120 -8 0 -18 3 -22 7 -3 4 -14 8 -23 9 -9 2 -28 6
-42 10 -14 4 -34 8 -43 9 -10 2 -19 3 -20 5 -2 1 -23 3 -48 5 -25 2 -64 6 -87
8 -23 3 -43 4 -45 2z"/>
</g>
</svg>
